<svg viewBox="0 0 256 256" xmlns="http://www.w3.org/2000/svg" role="img" aria-label="Spark plug">
  <rect x="112" y="28" width="32" height="40" rx="4" fill="#C7D0DA"/>
  <polygon points="104,70 152,70 144,104 112,104" fill="#8B97A4"/>
  <rect x="110" y="104" width="36" height="56" rx="6" fill="#E8EDF2"/>
  <rect x="110" y="104" width="36" height="56" rx="6" fill="none" stroke="#C7D0DA" stroke-width="3"/>
  <rect x="114" y="160" width="28" height="30" fill="#8B97A4"/>
  <g stroke="#4A555F" stroke-width="3">
    <line x1="114" y1="166" x2="142" y2="166"/>
    <line x1="114" y1="174" x2="142" y2="174"/>
    <line x1="114" y1="182" x2="142" y2="182"/>
  </g>
  <rect x="124" y="190" width="8" height="22" fill="#C7D0DA"/>
  <path d="M124 212 H150" stroke="#C7D0DA" stroke-width="6" fill="none" stroke-linecap="round"/>
  <path d="M150 212 V200" stroke="#C7D0DA" stroke-width="6" fill="none" stroke-linecap="round"/>
  <path d="M134 196 l10 -10 -4 12 8 -2 -12 14 4 -12z" fill="#28E0C8"/>
</svg>
